<svg xmlns="http://www.w3.org/2000/svg" width="84" height="108.161" viewBox="0 0 84 108.161">
  <g id="logo" transform="translate(2 2.828)">
    <path id="Path_6" data-name="Path 6" d="M2973.227,1495.471l-32.036,32.032-32.036-32.032a27.178,27.178,0,0,1,0-38.439L2941.191,1425l32.036,32.033a27.169,27.169,0,0,1,0,38.439Z" transform="translate(-2901.193 -1425)" fill="none" stroke="#fff" stroke-linecap="square" stroke-miterlimit="10" stroke-width="4"/>
    <g id="Group_2" data-name="Group 2">
      <path id="Path_7" data-name="Path 7" d="M2941.191,1425l-32.036,32.033a27.182,27.182,0,1,0,38.443,38.439l12.815-12.813a9.061,9.061,0,1,0-12.815-12.813l-12.814,12.813a9.061,9.061,0,1,1-12.814-12.813l12.814-12.813a27.182,27.182,0,1,1,38.444,38.439l-32.036,32.032" transform="translate(-2901.193 -1425)" fill="none" stroke="#fff" stroke-linecap="square" stroke-miterlimit="10" stroke-width="4"/>
    </g>
  </g>
</svg>
