<svg xmlns="http://www.w3.org/2000/svg" width="42" height="54.073" viewBox="0 0 42 54.073"><g transform="translate(-2900.193 -1423.586)"><path d="M2937.209,1460.23l-16.018,16.014-16.018-16.014a13.586,13.586,0,0,1,0-19.217L2921.191,1425l16.018,16.014a13.581,13.581,0,0,1,0,19.217Z" transform="translate(0 0)" fill="none" stroke="#fff" stroke-linecap="square" stroke-miterlimit="10" stroke-width="2"/><g transform="translate(2901.193 1425)"><path d="M2921.191,1425l-16.018,16.014a13.59,13.59,0,0,0,19.222,19.217l6.407-6.406a4.53,4.53,0,1,0-6.407-6.406l-6.407,6.406a4.53,4.53,0,1,1-6.407-6.406l6.407-6.406a13.59,13.59,0,1,1,19.222,19.217l-16.018,16.014" transform="translate(-2901.192 -1425)" fill="none" stroke="#fff" stroke-linecap="square" stroke-miterlimit="10" stroke-width="2"/></g></g></svg>