<svg xmlns="http://www.w3.org/2000/svg" width="60.368" height="77.812" viewBox="0 0 60.368 77.812"><g transform="translate(1.75 2.475)"><path d="M2952.4,1475.093l-22.773,22.769-22.773-22.769a19.319,19.319,0,0,1,0-27.323L2929.625,1425l22.773,22.769a19.312,19.312,0,0,1,0,27.323Z" transform="translate(-2901.193 -1425)" fill="none" stroke="#fff" stroke-linecap="square" stroke-miterlimit="10" stroke-width="3.5"/><path d="M2929.625,1425l-22.773,22.769a19.322,19.322,0,1,0,27.327,27.323l9.109-9.108a6.441,6.441,0,1,0-9.109-9.108l-9.109,9.108a6.441,6.441,0,1,1-9.109-9.108l9.109-9.108a19.322,19.322,0,1,1,27.328,27.323l-22.773,22.769" transform="translate(-2901.193 -1425)" fill="none" stroke="#fff" stroke-linecap="square" stroke-miterlimit="10" stroke-width="3.5"/></g></svg>