<svg xmlns="http://www.w3.org/2000/svg" width="44.592" height="50" viewBox="0 0 44.592 50"><path d="M161.194,275.206c4.214-6.99,9.541-16.816,9.541-21.867a15.449,15.449,0,1,0-30.9,0c0,5.051,5.327,14.877,9.541,21.867-5,.378-16.378,1.735-16.378,6.235,0,4.428,11.551,6.449,22.3,6.449s22.3-2.021,22.3-6.449c-.01-4.5-11.4-5.857-16.4-6.235Zm-19.225-21.867a13.321,13.321,0,1,1,26.643,0c0,6.419-10.224,22.52-13.326,27.255-3.1-4.735-13.316-20.836-13.316-27.255Zm13.316,32.418c-13.051,0-20.163-2.857-20.163-4.327,0-1.133,4.694-3.571,15.51-4.194,2.031,3.275,3.571,5.592,3.776,5.867a1.089,1.089,0,0,0,1.765,0c.215-.255,1.745-2.592,3.776-5.867,10.816.622,15.51,3.051,15.51,4.194-.01,1.48-7.122,4.327-20.173,4.327Zm0,0" transform="translate(-133 -237.89)" fill="#446a82"/><path d="M261.352,309a6.988,6.988,0,1,0-6.988,6.988A6.988,6.988,0,0,0,261.352,309Zm-11.771,0a4.782,4.782,0,1,1,4.782,4.782A4.783,4.783,0,0,1,249.581,309Zm0,0" transform="translate(-232.077 -293.416)" fill="#446a82"/></svg>