<svg xmlns="http://www.w3.org/2000/svg" width="50" height="50" viewBox="0 0 50 50"><path d="M441.215,306.691a3.415,3.415,0,1,0,3.415,3.414,3.418,3.418,0,0,0-3.415-3.414Zm0,5.122a1.707,1.707,0,1,1,1.708-1.708,1.709,1.709,0,0,1-1.708,1.708Zm0,0" transform="translate(-394.631 -296.728)" fill="#446a82"/><path d="M108.415,517.89a3.415,3.415,0,1,0,3.414,3.415,3.418,3.418,0,0,0-3.414-3.415Zm0,5.122a1.707,1.707,0,1,1,1.707-1.707,1.709,1.709,0,0,1-1.707,1.707Zm0,0" transform="translate(-105 -480.696)" fill="#446a82"/><path d="M395.187,291.125l-7.365-3.556a.854.854,0,0,0-.742,1.538l7.365,3.556a.854.854,0,0,0,.742-1.538Zm0,0" transform="translate(-350.257 -279.801)" fill="#446a82"/><path d="M370.813,562.691a3.415,3.415,0,1,0,3.415,3.414,3.418,3.418,0,0,0-3.415-3.414Zm0,5.122a1.707,1.707,0,1,1,1.708-1.708,1.709,1.709,0,0,1-1.708,1.708Zm0,0" transform="translate(-333.36 -519.52)" fill="#446a82"/><path d="M324.786,547.125l-7.365-3.556a.854.854,0,1,0-.742,1.538l7.365,3.556a.854.854,0,1,0,.742-1.538Zm0,0" transform="translate(-288.841 -502.875)" fill="#446a82"/><path d="M274.813,402.691a3.415,3.415,0,1,0,3.415,3.414,3.418,3.418,0,0,0-3.415-3.414Zm0,5.122a1.707,1.707,0,1,1,1.708-1.708,1.709,1.709,0,0,1-1.708,1.708Zm0,0" transform="translate(-249.813 -380.276)" fill="#446a82"/><path d="M240.035,381.684l-5.658-4.409a.854.854,0,1,0-1.05,1.347l5.657,4.41a.854.854,0,0,0,1.05-1.348Zm0,0" transform="translate(-216.4 -357.991)" fill="#446a82"/><path d="M351.191,396.288a9.391,9.391,0,1,0,9.391,9.391,9.4,9.4,0,0,0-9.391-9.391Zm0,17.074a7.683,7.683,0,1,1,7.684-7.683,7.691,7.691,0,0,1-7.684,7.683Zm0,0" transform="translate(-311.436 -374.928)" fill="#446a82"/><path d="M390.016,421.89a3.415,3.415,0,1,0,3.415,3.415,3.418,3.418,0,0,0-3.415-3.415Zm0,5.122a1.707,1.707,0,1,1,1.708-1.707,1.709,1.709,0,0,1-1.708,1.707Zm0,0" transform="translate(-350.261 -396.984)" fill="#446a82"/><path d="M381.4,485.89h-4.953a2.614,2.614,0,0,0-2.645,2.574v2.25a.854.854,0,0,0,.426.739,9.343,9.343,0,0,0,9.393,0,.853.853,0,0,0,.426-.738v-2.251a2.614,2.614,0,0,0-2.646-2.575Zm.938,4.315a7.741,7.741,0,0,1-6.83,0v-1.741a.906.906,0,0,1,.938-.867H381.4a.906.906,0,0,1,.938.867Zm0,0" transform="translate(-339.168 -452.682)" fill="#446a82"/><path d="M197.59,473.089a9.391,9.391,0,1,0,9.391,9.391,9.4,9.4,0,0,0-9.391-9.391Zm0,17.074a7.683,7.683,0,1,1,7.683-7.683,7.691,7.691,0,0,1-7.683,7.683Zm0,0" transform="translate(-177.519 -441.871)" fill="#446a82"/><path d="M236.415,498.691a3.415,3.415,0,1,0,3.414,3.414,3.418,3.418,0,0,0-3.414-3.414Zm0,5.122a1.707,1.707,0,1,1,1.707-1.708,1.709,1.709,0,0,1-1.707,1.708Zm0,0" transform="translate(-216.396 -463.822)" fill="#446a82"/><path d="M227.8,562.691h-4.953a2.614,2.614,0,0,0-2.646,2.574v2.25a.854.854,0,0,0,.426.739,9.342,9.342,0,0,0,9.392,0,.852.852,0,0,0,.426-.738v-2.25a2.614,2.614,0,0,0-2.645-2.575Zm.938,4.315a7.742,7.742,0,0,1-6.83,0v-1.741a.906.906,0,0,1,.938-.867H227.8a.906.906,0,0,1,.938.867Zm0,0" transform="translate(-205.291 -519.52)" fill="#446a82"/><path d="M114.391,313.089a9.391,9.391,0,1,0,9.391,9.391,9.4,9.4,0,0,0-9.391-9.391Zm0,17.074a7.683,7.683,0,1,1,7.684-7.683,7.691,7.691,0,0,1-7.684,7.683Zm0,0" transform="translate(-105 -302.409)" fill="#446a82"/><path d="M153.215,338.691a3.415,3.415,0,1,0,3.415,3.414,3.418,3.418,0,0,0-3.415-3.414Zm0,5.122a1.707,1.707,0,1,1,1.708-1.708,1.709,1.709,0,0,1-1.708,1.708Zm0,0" transform="translate(-143.825 -324.578)" fill="#446a82"/><path d="M144.6,402.691h-4.953A2.614,2.614,0,0,0,137,405.265v2.25a.854.854,0,0,0,.426.739,9.342,9.342,0,0,0,9.392,0,.852.852,0,0,0,.426-.738v-2.25a2.614,2.614,0,0,0-2.646-2.575Zm.938,4.315a7.742,7.742,0,0,1-6.83,0v-1.741a.906.906,0,0,1,.938-.867H144.6a.906.906,0,0,1,.938.867Zm0,0" transform="translate(-132.731 -380.276)" fill="#446a82"/><path d="M267.992,229.89a9.391,9.391,0,1,0,9.391,9.391,9.4,9.4,0,0,0-9.391-9.391Zm0,17.074a7.683,7.683,0,1,1,7.684-7.684,7.692,7.692,0,0,1-7.684,7.684Zm0,0" transform="translate(-238.885 -229.89)" fill="#446a82"/><path d="M306.817,255.492a3.415,3.415,0,1,0,3.415,3.414,3.418,3.418,0,0,0-3.415-3.414Zm0,5.122a1.708,1.708,0,1,1,1.708-1.708,1.709,1.709,0,0,1-1.708,1.708Zm0,0" transform="translate(-277.666 -252.077)" fill="#446a82"/><path d="M298.2,319.492h-4.953a2.613,2.613,0,0,0-2.645,2.574v2.25a.854.854,0,0,0,.426.739,9.343,9.343,0,0,0,9.393,0,.852.852,0,0,0,.426-.738v-2.25a2.613,2.613,0,0,0-2.645-2.574Zm.939,4.315a7.744,7.744,0,0,1-6.83,0v-1.741a.906.906,0,0,1,.939-.867H298.2a.906.906,0,0,1,.938.867v1.741Zm0,0" transform="translate(-266.583 -307.869)" fill="#446a82"/><path d="M221.672,294.188a.855.855,0,0,0-1.2-.093l-5.916,5.063a.853.853,0,1,0,1.109,1.3l5.916-5.063a.853.853,0,0,0,.094-1.2Zm0,0" transform="translate(-200.088 -285.588)" fill="#446a82"/><path d="M367.657,352.268l-5.122-6.829a.854.854,0,0,0-1.366,1.024l5.123,6.83a.853.853,0,0,0,1.366-1.024Zm0,0" transform="translate(-327.791 -330.169)" fill="#446a82"/><path d="M317.429,485.637a.854.854,0,0,0-1.2-.171l-4.769,3.576a.853.853,0,1,0,1.024,1.365l4.769-3.576a.852.852,0,0,0,.171-1.194Zm0,0" transform="translate(-284.38 -452.133)" fill="#446a82"/><path d="M150.228,537.089h-5.976a.854.854,0,1,0,0,1.708h5.976a.854.854,0,0,0,0-1.708Zm0,0" transform="translate(-138.276 -497.123)" fill="#446a82"/><path d="M153.215,229.89a3.415,3.415,0,1,0,3.415,3.415,3.418,3.418,0,0,0-3.415-3.415Zm0,5.122a1.707,1.707,0,1,1,1.708-1.707,1.708,1.708,0,0,1-1.708,1.707Zm0,0" transform="translate(-143.825 -229.89)" fill="#446a82"/><path d="M169.853,268.288a.854.854,0,0,0-.853.854v5.976a.854.854,0,1,0,1.708,0v-5.976a.854.854,0,0,0-.854-.854Zm0,0" transform="translate(-160.674 -263.166)" fill="#446a82"/></svg>