<svg xmlns="http://www.w3.org/2000/svg" width="43.07" height="50.796" viewBox="0 0 43.07 50.796"><path d="M166.144,229.89H136.976A2.98,2.98,0,0,0,134,232.866v10.12a.992.992,0,0,0,1.984,0v-10.12a.993.993,0,0,1,.992-.992h29.168a.993.993,0,0,1,.992.992v36.906a.993.993,0,0,1-.992.992H136.976a.993.993,0,0,1-.992-.992v-18.42a.992.992,0,1,0-1.984,0v18.42a2.98,2.98,0,0,0,2.976,2.976h29.168a2.98,2.98,0,0,0,2.976-2.976V232.866a2.98,2.98,0,0,0-2.976-2.976Zm0,0" transform="translate(-134 -229.89)" fill="#446a82"/><path d="M135.693,355.265a.992.992,0,1,0,.291.7,1,1,0,0,0-.291-.7Zm0,0" transform="translate(-134 -338.429)" fill="#446a82"/><path d="M165.737,569.227a.993.993,0,1,0,.29.7,1,1,0,0,0-.29-.7Zm0,0" transform="translate(-160.069 -524.088)" fill="#446a82"/><path d="M224.207,259.937a.992.992,0,0,0-.992.992V299.82a.993.993,0,0,1-.992.992H195.039a.992.992,0,0,0,0,1.984h27.184a2.98,2.98,0,0,0,2.976-2.976V260.929a.992.992,0,0,0-.992-.992Zm0,0" transform="translate(-186.104 -255.962)" fill="#446a82"/><path d="M228.222,289.89a.992.992,0,0,0-.992.992v38.891a.993.993,0,0,1-.992.992H195.086a.992.992,0,1,0,0,1.984h31.152a2.98,2.98,0,0,0,2.976-2.976V290.882a.992.992,0,0,0-.992-.992Zm0,0" transform="translate(-186.145 -281.953)" fill="#446a82"/><path d="M186.516,285.39h-9.524a.992.992,0,0,0-.992.992v9.524a.992.992,0,0,0,.992.992h9.524a.992.992,0,0,0,.992-.992v-9.524a.992.992,0,0,0-.992-.992Zm-.992,9.524h-7.54v-7.54h7.54Zm0,0" transform="translate(-170.444 -278.048)" fill="#446a82"/><path d="M185.709,404.535a.992.992,0,0,0-1.4,0l-2.637,2.637-1.226-1.226a.992.992,0,0,0-1.4,1.4l1.928,1.928a.993.993,0,0,0,1.4,0l3.339-3.339a.992.992,0,0,0,0-1.4Zm0,0" transform="translate(-172.829 -381.181)" fill="#446a82"/><path d="M271.817,416.64H260.242a.992.992,0,1,0,0,1.984h11.575a.992.992,0,0,0,0-1.984Zm0,0" transform="translate(-242.682 -391.937)" fill="#446a82"/><path d="M297.937,285.39h-6.945a.992.992,0,1,0,0,1.984h6.945a.992.992,0,0,0,0-1.984Zm0,0" transform="translate(-269.364 -278.048)" fill="#446a82"/><path d="M297.937,321.39h-6.945a.992.992,0,1,0,0,1.984h6.945a.992.992,0,0,0,0-1.984Zm0,0" transform="translate(-269.364 -309.286)" fill="#446a82"/><path d="M297.937,357.39h-6.945a.992.992,0,1,0,0,1.984h6.945a.992.992,0,0,0,0-1.984Zm0,0" transform="translate(-269.364 -340.524)" fill="#446a82"/><path d="M185.709,461.811a.992.992,0,0,0-1.4,0l-2.637,2.637-1.226-1.227a.992.992,0,0,0-1.4,1.4l1.928,1.927a.992.992,0,0,0,1.4,0l3.339-3.338a.992.992,0,0,0,0-1.4Zm0,0" transform="translate(-172.829 -430.88)" fill="#446a82"/><path d="M271.817,473.64H260.242a.992.992,0,1,0,0,1.984h11.575a.992.992,0,0,0,0-1.984Zm0,0" transform="translate(-242.682 -441.397)" fill="#446a82"/></svg>